<svg xmlns="http://www.w3.org/2000/svg" viewBox="0 0 256 256" width="256" height="256">
  <!-- 外枠の影 -->
  <path d="M 90 48 Q 70 50 58 65 L 45 90 L 45 165 Q 45 190 60 205 L 75 215 Q 95 225 120 225 L 150 225 Q 175 225 195 215 L 210 205 Q 225 190 225 165 L 225 90 L 212 65 Q 200 50 180 48 Z"
        fill="#1a1a1a"/>

  <!-- メインボディ -->
  <path d="M 85 55 Q 68 57 58 70 L 48 90 L 48 160 Q 48 183 62 197 L 75 207 Q 93 215 115 215 L 145 215 Q 167 215 185 207 L 198 197 Q 212 183 212 160 L 212 90 L 202 70 Q 192 57 175 55 Z"
        fill="#3a3a3a"/>

  <!-- 左側の明るいパネル -->
  <path d="M 70 75 L 70 145 Q 70 158 78 165 L 105 165 L 115 160 L 115 75 Q 115 68 108 65 L 85 65 Q 70 68 70 75 Z"
        fill="#b0b0b0"/>

  <!-- 左パネルのピクセル模様 -->
  <g opacity="0.5">
    <rect x="77" y="82" width="10" height="10" fill="#d0d0d0"/>
    <rect x="87" y="82" width="10" height="10" fill="#888888"/>
    <rect x="97" y="82" width="10" height="10" fill="#d0d0d0"/>

    <rect x="77" y="100" width="10" height="10" fill="#888888"/>
    <rect x="87" y="100" width="10" height="10" fill="#d0d0d0"/>
    <rect x="97" y="100" width="10" height="10" fill="#888888"/>

    <rect x="77" y="118" width="10" height="10" fill="#d0d0d0"/>
    <rect x="87" y="118" width="10" height="10" fill="#888888"/>
    <rect x="97" y="118" width="10" height="10" fill="#d0d0d0"/>

    <rect x="77" y="136" width="10" height="10" fill="#888888"/>
    <rect x="87" y="136" width="10" height="10" fill="#d0d0d0"/>
  </g>

  <!-- スクロールホイールエリア（中央上部の凹み） -->
  <ellipse cx="140" cy="95" rx="22" ry="38" fill="#1a1a1a"/>
  <ellipse cx="140" cy="95" rx="16" ry="32" fill="#2a2a2a"/>

  <!-- スクロールホイール本体 -->
  <ellipse cx="140" cy="95" rx="12" ry="28" fill="#555555"/>

  <!-- スクロールホイールの溝 -->
  <g opacity="0.6">
    <rect x="133" y="75" width="14" height="2.5" fill="#3a3a3a" rx="1"/>
    <rect x="133" y="83" width="14" height="2.5" fill="#3a3a3a" rx="1"/>
    <rect x="133" y="91" width="14" height="2.5" fill="#3a3a3a" rx="1"/>
    <rect x="133" y="99" width="14" height="2.5" fill="#3a3a3a" rx="1"/>
    <rect x="133" y="107" width="14" height="2.5" fill="#3a3a3a" rx="1"/>
    <rect x="133" y="115" width="14" height="2.5" fill="#3a3a3a" rx="1"/>
  </g>

  <!-- 右側ボタンエリア -->
  <path d="M 165 75 L 165 145 Q 165 158 173 165 L 188 165 Q 195 158 195 145 L 195 75 Q 195 68 188 65 L 173 65 Q 165 68 165 75 Z"
        fill="#505050"/>

  <!-- 中央の分割線 -->
  <line x1="140" y1="65" x2="140" y2="140" stroke="#2a2a2a" stroke-width="2.5"/>

  <!-- 上部のハイライト -->
  <ellipse cx="130" cy="62" rx="35" ry="8" fill="#555555" opacity="0.3"/>
</svg>
